<?xml version="1.0" encoding="UTF-8"?>
<!DOCTYPE svg PUBLIC "-//W3C//DTD SVG 1.1//EN" "http://www.w3.org/Graphics/SVG/1.1/DTD/svg11.dtd">
<!-- Creator: CorelDRAW -->
<svg xmlns="http://www.w3.org/2000/svg" xml:space="preserve" width="125.951mm" height="31.9649mm" version="1.1" style="shape-rendering:geometricPrecision; text-rendering:geometricPrecision; image-rendering:optimizeQuality; fill-rule:evenodd; clip-rule:evenodd"
viewBox="0 0 2549.91 647.14"
 xmlns:xlink="http://www.w3.org/1999/xlink"
 xmlns:xodm="http://www.corel.com/coreldraw/odm/2003">
 <defs>
  <style type="text/css">
   <![CDATA[
    .str1 {stroke:#2B2A29;stroke-width:2.02;stroke-miterlimit:22.9256}
    .str0 {stroke:#2B2A29;stroke-width:1.54;stroke-miterlimit:22.9256}
    .fil1 {fill:none}
    .fil5 {fill:#2B2A29}
    .fil0 {fill:#1F1D1D}
    .fil4 {fill:#4C4B4C}
    .fil3 {fill:#747274}
    .fil2 {fill:#FDFEFE}
    .fil6 {fill:#2B2A29;fill-rule:nonzero}
   ]]>
  </style>
 </defs>
 <g id="Layer_x0020_1">
  <metadata id="CorelCorpID_0Corel-Layer"/>
  <path class="fil0 str0" d="M1254.3 270.28c3.59,4.03 1.72,1.01 -0.11,3.19l-32.97 -12.14c-11.62,-2.79 -21.26,-5.74 -33.88,-8.04 -72.2,-14.21 -155.61,-7.31 -227.64,22.39 -61.48,25.14 -102.41,51.12 -155.88,88.64 -119.5,83.95 -309.14,242.51 -441.85,273.4 -78.43,18.11 -155.12,10.78 -202.42,-50.75 -13.52,-17.84 -38.24,-60.66 -39.08,-81.2 17.45,31.13 23.43,45.27 49.08,66.96 19.68,16.97 40.19,25.42 60.6,30.26 48.78,10.82 94.61,1.85 149.78,-21.04 29.86,-12.27 54.25,-28.2 80.9,-42.86 21.08,-11.72 51.41,-31.55 71.39,-46.4 10.66,-7.75 23.29,-15.66 34.72,-23.52l102.85 -70.71c47.67,-34.2 96.32,-62.07 145.91,-91.43 101.6,-59.63 232.12,-100.2 344.73,-73.77l17.03 4.63c10.08,3 21.9,6.21 31.72,10.39 5.18,2.22 9.72,3.96 15.43,6.45 4.84,2.38 26.71,12.8 29.68,15.56z"/>
  <path class="fil0 str0" d="M588.33 311.28c16.3,111.36 -55.93,81.67 -82.6,89.89 -31.48,9.81 -61.12,37.39 -77.04,28.11 -40.37,-22.8 -2.22,-110.57 8.15,-158.56 9.26,-42.43 11.11,-68.68 0.74,-108.71l-3.33 -1.59 0.74 6.1c-1.11,8.22 0.37,26.78 0,36.86 -0.74,33.94 -11.85,57.54 -24.08,84.58 -19.26,41.1 -41.48,87.24 -30.37,137.35 4.45,19.62 12.59,33.94 29.26,41.1 31.11,12.73 68.15,-21.48 91.12,-33.94 69.64,-37.65 152.97,14.32 116.3,-107.12 -6.3,-20.95 -88.89,-192.24 -111.12,-197.01 43.33,65.23 62.97,110.83 82.23,182.96z"/>
  <path class="fil0 str0" d="M57.55 323.74c9.26,-5.3 18.15,-1.59 20.37,-14.85 1.11,-7.16 0.74,-10.08 5.18,-13.26 13.7,-9.28 18.89,14.05 2.96,26.52 -3.7,2.92 -7.41,3.98 -12.59,4.24 -4.81,0.27 -12.22,0.8 -15.93,-2.65zm-22.96 -6.89c-18.89,-5.04 -20.37,-29.17 -12.59,-33.94 9.26,-6.1 9.63,6.36 7.41,12.99 -4.82,13.52 1.85,12.46 5.18,20.95zm7.41 22.01c8.15,1.06 10.74,3.18 19.63,3.45 45.19,1.59 51.48,-47.46 43.71,-66.29 -13.7,-33.14 -69.63,-36.59 -87.04,-5.57 -7.41,13.79 -2.59,25.19 -2.59,31.29 0,4.77 -0.74,6.36 0,11.67 1.85,14.05 11.48,18.3 21.48,23.87l-1.85 29.17c3.33,-7.16 5.18,-19.09 6.67,-27.58z"/>
  <path class="fil0 str0" d="M109.78 126.46c-1.48,7.95 -2.22,3.18 1.48,4.77l32.22 -40.04c5.93,-5.83 11.48,-11.67 18.52,-18.03 34.82,-31.55 77.04,-49.05 125.56,-53.83 68.52,-6.63 131.86,20.42 182.23,66.29 3.33,2.92 17.78,16.17 18.89,16.44l0 -1.06c-2.59,-12.73 -61.86,-59.4 -81.86,-70.27 -35.56,-19.09 -72.6,-32.08 -118.9,-29.7 -58.52,2.65 -114.45,32.08 -148.16,77.42 -6.67,9.02 -27.04,35 -30,47.99z"/>
  <path class="fil0 str0" d="M66.13 410.17c6.4,8.48 18.99,14.26 28.44,19.77 3.11,1.66 -0.07,-0.26 2.68,1.5 3.6,2.08 7.42,3.56 10.95,5.39 41.16,18.67 81.6,-5.47 119.5,-20.18 32.94,-13.17 53.77,-12.52 59.73,-14.61l1.77 -6.48c-16.24,-30.31 -78.32,34.47 -121.67,39.92 -30.04,3.65 -52.62,-2.29 -78.91,-15.22 -3.96,-1.99 -7.2,-4.16 -10.8,-6.25 -3.04,-1.41 -3.04,-1.41 -5.85,-3.42 -2.81,-2.01 -1.67,-2.03 -4.67,-1.81l-2.84 -0.63 1.67 2.03z"/>
  <g>
   <path class="fil0" d="M262.38 216.09c-10,-0.27 -13.34,-7.69 -17.41,-14.85 4.07,0.8 2.96,3.98 7.78,7.16 12.59,8.22 25.19,0 33.71,-1.86l-24.08 9.55zm-32.59 -16.17c5.93,0.53 6.3,-2.92 9.26,2.65 1.85,3.71 1.11,5.57 3.7,9.81 15.93,27.05 49.63,0.8 58.15,-2.65 4.81,2.65 7.41,6.9 12.96,8.22 -1.48,-5.04 -13.33,-23.33 -15.93,-27.05 -42.96,-55.42 -61.11,0.8 -68.15,9.02z"/>
   <path id="_1" class="fil1 str0" d="M262.38 216.09c-10,-0.27 -13.34,-7.69 -17.41,-14.85 4.07,0.8 2.96,3.98 7.78,7.16 12.59,8.22 25.19,0 33.71,-1.86m-56.67 -6.63c5.93,0.53 6.3,-2.92 9.26,2.65 1.85,3.71 1.11,5.57 3.7,9.81 15.93,27.05 49.63,0.8 58.15,-2.65 4.81,2.65 7.41,6.9 12.96,8.22 -1.48,-5.04 -13.33,-23.33 -15.93,-27.05 -42.96,-55.42 -61.11,0.8 -68.15,9.02z"/>
  </g>
  <path class="fil0 str0" d="M137.92 509.35c13.34,17.77 40.37,32.88 69.26,38.18 31.48,6.1 61.86,-1.33 88.52,-11.14 1.11,-3.71 1.48,-1.06 0,-3.18 -5.19,1.86 -3.33,2.12 -8.52,1.06 -14.07,-2.12 -41.11,6.36 -82.23,-1.06 -40,-6.89 -56.67,-25.19 -63.71,-26.25l-4.45 -1.86 1.11 4.24z"/>
  <path class="fil0 str0" d="M34.96 437.22c3.7,14.32 24.45,33.94 38.52,40.04 16.67,7.42 48.15,5.57 61.49,-5.3 -25.19,2.12 -40.38,2.65 -65.93,-9.02 -7.41,-3.45 -12.22,-6.9 -18.89,-11.93 -9.26,-7.16 -7.78,-9.28 -15.19,-13.79z"/>
  <path class="fil0 str0" d="M107.18 185.59l-0.74 3.71 2.96 -1.86c3.33,-0.8 5.93,-7.16 7.78,-10.08 2.59,-4.51 4.44,-8.22 6.3,-12.99 8.15,-20.15 1.48,-24.39 0,-28.9 -12.96,-0.53 -13.7,9.02 -20.37,14.58l3.7 2.65c-1.11,14.32 2.22,19.09 0.37,32.88z"/>
  <path class="fil0 str0" d="M6.43 401.69c3.7,9.55 14.82,25.45 22.97,27.31 -5.93,-28.9 -4.82,-27.05 2.22,-47.46 -1.85,-2.12 -12.96,15.91 -11.48,27.31 -19.63,-10.08 -14.08,-64.7 -12.97,-81.4 -5.56,24.92 -10.74,48.79 -0.74,74.24z"/>
  <path class="fil2 str0" d="M57.55 323.74c3.7,3.45 11.11,2.92 15.93,2.65 5.18,-0.27 8.89,-1.33 12.59,-4.24 15.93,-12.46 10.74,-35.8 -2.96,-26.52 -4.45,3.18 -4.08,6.1 -5.18,13.26 -2.22,13.26 -11.11,9.55 -20.37,14.85z"/>
  <path class="fil2 str0" d="M34.58 316.84c-3.33,-8.48 -10,-7.42 -5.18,-20.95 2.22,-6.63 1.85,-19.09 -7.41,-12.99 -7.78,4.77 -6.3,28.9 12.59,33.94z"/>
  <path class="fil3 str0" d="M85.33 215.55c-3.7,0.53 -2.96,1.33 -2.22,-2.92l-20.37 16.44c-6.67,5.04 -14.07,11.14 -20,15.91 6.67,-2.92 15.93,-9.02 22.22,-12.99 8.15,-5.3 14.44,-9.55 20.37,-16.44z"/>
  <path class="fil2 str0" d="M286.45 206.54c-35.56,8.75 -28.52,-3.71 -41.48,-5.3 4.07,7.16 7.41,14.58 17.41,14.85 10,0.27 19.26,-4.24 24.08,-9.55z"/>
  <path class="fil4 str0" d="M91.26 206.27c3.7,-4.24 1.48,-2.65 2.22,0 6.3,-3.71 12.96,-11.14 15.93,-18.83l-2.96 1.86 0.74 -3.71 -5.18 5.3c-1.48,2.12 -1.85,2.92 -3.33,5.04 -2.96,4.51 -4.44,5.57 -7.41,10.34z"/>
  <path class="fil4 str0" d="M137.92 509.35l-1.11 -4.24 4.45 1.86c-2.22,-4.24 -14.08,-15.11 -18.15,-17.5 2.22,6.89 10,17.23 14.82,19.89z"/>
  <path class="fil4 str0" d="M62.73 405.67l-1.11 -2.39 2.59 1.33c-3.33,-6.1 -13.7,-19.62 -20,-24.13 4.81,7.96 10.74,20.42 18.52,25.19z"/>
  <path class="fil2 str0" d="M278.3 188.77c-3.33,7.42 5.93,10.87 9.26,7.16 7.04,-7.42 -5.56,-14.32 -9.26,-7.16z"/>
  <path class="fil4 str0" d="M111.26 131.24c-3.7,-1.59 -2.96,3.18 -1.48,-4.77 -4.45,3.71 -8.89,13.79 -8.89,19.89 1.48,-2.12 3.33,-3.98 4.81,-6.36l5.56 -8.75z"/>
  <path class="fil4 str0" d="M517.58 141.58l-0.74 -3.18 2.59 1.33c-2.59,-6.63 -9.63,-12.2 -15.93,-12.46l14.07 14.32z"/>
  <path class="fil4 str0" d="M434.98 166.5l-0.74 -6.1 3.33 1.59c-1.11,-6.9 -2.59,-9.55 -6.67,-12.46 0.37,4.24 0.74,5.04 1.48,9.02 0,2.12 0,3.18 0.74,5.04 1.11,3.71 0.37,1.33 1.85,2.92z"/>
  <path class="fil0 str0" d="M83.11 212.64c-0.74,4.24 -1.48,3.45 2.22,2.92 4.44,-3.71 4.81,-5.3 8.15,-9.28 -0.74,-2.65 1.48,-4.24 -2.22,0l-8.15 6.36z"/>
  <path class="fil4 str0" d="M287.19 534.27c5.18,1.06 3.33,0.8 8.52,-1.06 1.48,2.12 1.11,-0.53 0,3.18l15.19 -6.1 -23.71 3.98z"/>
  <path class="fil3 str0" d="M488.69 102.07c1.85,5.3 2.96,6.1 7.04,6.89 -2.96,-4.51 -1.11,-4.77 -7.04,-7.95l0 1.06z"/>
  <g id="_2835524720">
   <path class="fil5 str1" d="M104.26 359.21c11.29,-0.06 58.83,2.76 68.22,-0.5 1.28,-0.45 1.92,8.37 -0.64,8.2 -6.23,-0.43 -66.57,-5.67 -67.58,-7.7z"/>
   <path class="fil5 str1" d="M105.17 371.92c11.21,1.31 58.06,9.87 67.78,7.77 1.33,-0.29 0.89,8.55 -1.63,8.06 -6.13,-1.18 -65.4,-13.69 -66.15,-15.83z"/>
   <path class="fil5 str1" d="M98.82 383.65c10.84,3.16 55.61,19.39 65.54,18.93 1.36,-0.06 -0.54,8.58 -2.95,7.68 -5.85,-2.18 -62.21,-24.37 -62.59,-26.61z"/>
  </g>
  <path class="fil6" d="M699.61 485.37l56.4 74.02 41.76 -31.81c3.31,-2.52 6.48,-3.67 9.48,-3.41 3.04,0.26 5.47,1.63 7.33,4.07 1.89,2.49 2.57,5.19 1.99,8.06 -0.58,2.87 -2.57,5.62 -5.93,8.18l-49.73 37.89c-4.47,3.41 -8.45,4.87 -11.93,4.37 -3.48,-0.49 -6.93,-2.95 -10.3,-7.38l-59.66 -78.3c-3.16,-4.14 -4.59,-7.99 -4.31,-11.5 0.28,-3.51 1.95,-6.43 5,-8.75 3.08,-2.34 6.36,-3.24 9.85,-2.64 3.49,0.6 6.86,3.01 10.05,7.2zm189.68 -18.52l-14.44 -9.27 -41.77 30.9 4.83 16.79c1.89,6.56 2.83,11.23 2.79,14.03 -0.01,2.79 -1.56,5.34 -4.65,7.62 -2.61,1.93 -5.64,2.69 -9.06,2.26 -3.42,-0.43 -6.04,-1.86 -7.83,-4.28 -1.04,-1.41 -1.88,-3.05 -2.53,-4.87 -0.64,-1.86 -1.39,-4.48 -2.3,-7.96l-23.07 -86.13c-0.65,-2.48 -1.46,-5.43 -2.39,-8.89 -0.95,-3.48 -1.47,-6.54 -1.58,-9.19 -0.11,-2.66 0.38,-5.24 1.5,-7.78 1.12,-2.53 3.11,-4.85 5.96,-6.96 2.92,-2.16 5.74,-3.4 8.49,-3.73 2.75,-0.33 5.35,-0.07 7.82,0.77 2.47,0.84 4.85,1.96 7.14,3.34 2.28,1.38 5.3,3.26 8.99,5.64l75.88 46.43c5.84,3.49 9.6,6.37 11.3,8.67 1.75,2.37 2.4,5.3 1.88,8.75 -0.52,3.46 -2.21,6.22 -5.01,8.29 -1.63,1.2 -3.25,1.96 -4.86,2.23 -1.57,0.28 -3.14,0.21 -4.69,-0.19 -1.53,-0.42 -3.52,-1.36 -5.95,-2.74 -2.47,-1.39 -4.6,-2.67 -6.44,-3.75zm-62.31 1.94l30.7 -22.71 -46.8 -30.9 16.11 53.6zm160.76 -36.82l-36.07 15.03c-5.22,2.18 -9.41,2.57 -12.61,1.16 -3.19,-1.41 -5.88,-4.67 -8,-9.76l-36.97 -88.72c-2.16,-5.19 -2.57,-9.41 -1.24,-12.64 1.33,-3.23 4.53,-5.92 9.64,-8.05l38.24 -15.93c5.63,-2.35 10.67,-4.03 15.08,-5.06 4.45,-1.01 8.7,-1.24 12.81,-0.6 3.49,0.48 6.81,1.58 10.05,3.23 3.21,1.66 5.99,3.79 8.4,6.4 2.42,2.64 4.35,5.64 5.78,9.07 4.92,11.81 2.62,22.92 -6.91,33.31 17.58,-1.52 29.32,4.84 35.27,19.12 2.75,6.59 3.53,13.26 2.35,19.94 -1.17,6.71 -4.1,12.51 -8.8,17.4 -2.97,3.01 -6.64,5.8 -11.06,8.35 -4.41,2.58 -9.75,5.16 -15.96,7.75zm-23.63 -51.67l-24.89 10.37 14.35 34.45 25.68 -10.7c16.18,-6.74 21.83,-15.93 16.98,-27.58 -2.48,-5.96 -6.37,-9.4 -11.69,-10.35 -5.28,-0.92 -12.11,0.34 -20.43,3.81zm-44.74 -37.26l12.71 30.49 21.92 -9.13c5.96,-2.48 10.31,-4.97 13.08,-7.45 2.8,-2.49 4.38,-5.66 4.79,-9.54 0.41,-2.81 0.01,-5.61 -1.14,-8.39 -2.48,-5.96 -6.25,-9.03 -11.32,-9.21 -5.04,-0.19 -11.94,1.53 -20.62,5.14l-19.42 8.09zm193.08 61.74l-39.06 1.09c-5.65,0.16 -9.7,-0.98 -12.18,-3.44 -2.48,-2.46 -3.81,-6.47 -3.96,-11.98l-2.67 -96.08c-0.16,-5.62 0.98,-9.71 3.38,-12.24 2.4,-2.54 6.35,-3.9 11.89,-4.05l41.41 -1.15c6.1,-0.17 11.4,0.07 15.89,0.69 4.51,0.65 8.57,1.96 12.17,4.04 3.08,1.7 5.79,3.92 8.22,6.62 2.4,2.7 4.24,5.69 5.55,8.98 1.31,3.33 2.03,6.82 2.14,10.54 0.35,12.79 -5.78,22.34 -18.41,28.61 16.96,4.89 25.63,15.04 26.06,30.51 0.2,7.14 -1.47,13.65 -4.97,19.46 -3.5,5.84 -8.32,10.21 -14.46,13.08 -3.85,1.75 -8.28,3.03 -13.32,3.82 -5.04,0.83 -10.95,1.32 -17.67,1.5zm-3.51 -56.7l-26.95 0.75 1.04 37.3 27.81 -0.77c17.52,-0.49 26.09,-7.04 25.74,-19.65 -0.18,-6.45 -2.57,-11.06 -7.2,-13.85 -4.6,-2.76 -11.42,-4.03 -20.44,-3.78zm-28.38 -50.83l0.92 33.02 23.74 -0.66c6.45,-0.18 11.4,-0.94 14.88,-2.26 3.51,-1.32 6.12,-3.71 7.9,-7.19 1.39,-2.48 2.03,-5.24 1.95,-8.24 -0.18,-6.46 -2.59,-10.68 -7.26,-12.66 -4.64,-1.99 -11.69,-2.86 -21.09,-2.6l-21.03 0.59zm109.11 96.58l17.69 -99.11c0.92,-5.15 2.78,-8.78 5.58,-10.94 2.8,-2.16 6.08,-2.91 9.8,-2.24 3.81,0.68 6.69,2.49 8.61,5.47 1.92,2.97 2.43,7.05 1.5,12.27l-17.69 99.11c-0.93,5.21 -2.82,8.87 -5.65,11.02 -2.83,2.15 -6.17,2.89 -9.98,2.21 -3.66,-0.65 -6.45,-2.48 -8.36,-5.51 -1.91,-3.03 -2.42,-7.11 -1.5,-12.27z"/>
  <path class="fil6" d="M644.99 158.22c-3.6,0 -6.7,-1.16 -9.31,-3.48 -2.62,-2.32 -3.93,-5.6 -3.93,-9.76 0,-3.57 1.25,-6.61 3.75,-9.17 2.5,-2.56 5.6,-3.84 9.26,-3.84 3.66,0 6.78,1.25 9.37,3.78 2.59,2.53 3.87,5.59 3.87,9.22 0,4.11 -1.28,7.35 -3.87,9.7 -2.59,2.35 -5.62,3.54 -9.14,3.54zm55.89 0c-3.6,0 -6.7,-1.16 -9.31,-3.48 -2.62,-2.32 -3.93,-5.6 -3.93,-9.76 0,-3.57 1.25,-6.61 3.75,-9.17 2.5,-2.56 5.6,-3.84 9.26,-3.84 3.66,0 6.78,1.25 9.37,3.78 2.59,2.53 3.87,5.59 3.87,9.22 0,4.11 -1.28,7.35 -3.87,9.7 -2.59,2.35 -5.62,3.54 -9.14,3.54zm55.89 0c-3.6,0 -6.7,-1.16 -9.31,-3.48 -2.62,-2.32 -3.93,-5.6 -3.93,-9.76 0,-3.57 1.25,-6.61 3.75,-9.17 2.5,-2.56 5.6,-3.84 9.26,-3.84 3.66,0 6.78,1.25 9.37,3.78 2.59,2.53 3.87,5.59 3.87,9.22 0,4.11 -1.28,7.35 -3.87,9.7 -2.59,2.35 -5.62,3.54 -9.14,3.54zm161.38 -31.07c0,6.55 -1.61,12.17 -4.79,16.84 -3.18,4.67 -7.92,8.21 -14.17,10.62 -6.25,2.41 -13.84,3.6 -22.79,3.6 -8.54,0 -15.86,-1.31 -21.96,-3.93 -6.1,-2.59 -10.59,-5.86 -13.51,-9.79 -2.89,-3.9 -4.34,-7.83 -4.34,-11.78 0,-2.62 0.92,-4.85 2.8,-6.7 1.85,-1.87 4.2,-2.8 7.05,-2.8 2.5,0 4.4,0.63 5.74,1.85 1.34,1.22 2.62,2.92 3.84,5.15 2.44,4.23 5.36,7.41 8.75,9.49 3.39,2.11 8.03,3.15 13.9,3.15 4.76,0 8.66,-1.07 11.7,-3.18 3.07,-2.11 4.58,-4.55 4.58,-7.29 0,-4.2 -1.58,-7.23 -4.73,-9.17 -3.18,-1.9 -8.39,-3.75 -15.65,-5.5 -8.19,-2.02 -14.85,-4.17 -20,-6.4 -5.12,-2.23 -9.23,-5.21 -12.32,-8.87 -3.07,-3.66 -4.61,-8.18 -4.61,-13.51 0,-4.79 1.43,-9.28 4.26,-13.54 2.86,-4.26 7.05,-7.62 12.62,-10.15 5.54,-2.53 12.23,-3.81 20.09,-3.81 6.16,0 11.7,0.63 16.58,1.91 4.91,1.28 9.02,3.01 12.29,5.15 3.3,2.17 5.8,4.55 7.5,7.17 1.73,2.62 2.59,5.15 2.59,7.68 0,2.71 -0.92,4.97 -2.77,6.7 -1.81,1.76 -4.43,2.62 -7.8,2.62 -2.44,0 -4.52,-0.68 -6.25,-2.08 -1.7,-1.4 -3.66,-3.48 -5.89,-6.28 -1.79,-2.32 -3.9,-4.2 -6.34,-5.59 -2.44,-1.4 -5.74,-2.08 -9.94,-2.08 -4.29,0 -7.86,0.92 -10.71,2.74 -2.83,1.84 -4.26,4.14 -4.26,6.87 0,2.5 1.04,4.55 3.12,6.13 2.11,1.61 4.91,2.95 8.45,3.99 3.54,1.04 8.42,2.32 14.64,3.84 7.38,1.79 13.42,3.96 18.09,6.46 4.67,2.5 8.21,5.45 10.62,8.87 2.41,3.39 3.63,7.26 3.63,11.64zm86.57 -11.43l-46.57 0c0.06,5.42 1.16,10.18 3.27,14.31 2.11,4.14 4.94,7.23 8.45,9.31 3.51,2.11 7.41,3.15 11.64,3.15 2.86,0 5.45,-0.33 7.8,-1.01 2.38,-0.65 4.64,-1.69 6.84,-3.12 2.23,-1.43 4.25,-2.95 6.1,-4.58 1.87,-1.64 4.28,-3.84 7.26,-6.63 1.22,-1.04 2.95,-1.58 5.21,-1.58 2.44,0 4.43,0.68 5.95,2.02 1.49,1.31 2.26,3.21 2.26,5.65 0,2.14 -0.86,4.64 -2.53,7.53 -1.7,2.86 -4.23,5.62 -7.65,8.24 -3.39,2.65 -7.65,4.85 -12.8,6.58 -5.15,1.76 -11.07,2.62 -17.74,2.62 -15.3,0 -27.17,-4.37 -35.65,-13.09 -8.48,-8.72 -12.71,-20.53 -12.71,-35.47 0,-7.02 1.04,-13.57 3.12,-19.58 2.08,-6.01 5.15,-11.16 9.14,-15.48 4.02,-4.29 8.96,-7.59 14.82,-9.88 5.86,-2.29 12.38,-3.45 19.52,-3.45 9.31,0 17.29,1.96 23.93,5.89 6.67,3.93 11.63,8.99 14.97,15.24 3.3,6.22 4.97,12.56 4.97,19.02 0,5.98 -1.72,9.88 -5.15,11.67 -3.42,1.76 -8.24,2.65 -14.46,2.65zm-46.57 -13.57l43.15 0c-0.56,-8.12 -2.77,-14.19 -6.58,-18.24 -3.81,-4.02 -8.81,-6.04 -15.03,-6.04 -5.95,0 -10.8,2.05 -14.61,6.13 -3.81,4.11 -6.13,10.15 -6.93,18.15zm109.84 21.73l0 19.88c0,4.82 -1.13,8.42 -3.39,10.83 -2.26,2.41 -5.12,3.63 -8.6,3.63 -3.42,0 -6.25,-1.22 -8.45,-3.66 -2.2,-2.44 -3.3,-6.04 -3.3,-10.8l0 -66.27c0,-10.68 3.87,-16.04 11.58,-16.04 3.93,0 6.78,1.25 8.51,3.75 1.76,2.5 2.71,6.22 2.89,11.1 2.83,-4.88 5.74,-8.6 8.75,-11.1 3.01,-2.5 6.99,-3.75 11.99,-3.75 5,0 9.85,1.25 14.55,3.75 4.7,2.5 7.05,5.83 7.05,9.97 0,2.92 -0.98,5.3 -3,7.2 -1.99,1.9 -4.17,2.83 -6.49,2.83 -0.86,0 -2.98,-0.54 -6.31,-1.61 -3.36,-1.07 -6.31,-1.61 -8.87,-1.61 -3.48,0 -6.31,0.92 -8.54,2.74 -2.2,1.84 -3.93,4.55 -5.15,8.15 -1.22,3.6 -2.05,7.89 -2.53,12.86 -0.45,4.97 -0.68,11.01 -0.68,18.15zm78.38 -48.92l0 68.8c0,4.76 -1.13,8.36 -3.39,10.8 -2.26,2.44 -5.12,3.66 -8.6,3.66 -3.48,0 -6.31,-1.25 -8.48,-3.75 -2.17,-2.5 -3.27,-6.07 -3.27,-10.71l0 -68.09c0,-4.73 1.1,-8.27 3.27,-10.65 2.17,-2.38 5,-3.57 8.48,-3.57 3.48,0 6.34,1.19 8.6,3.57 2.26,2.38 3.39,5.71 3.39,9.94zm-11.75 -24.58c-3.3,0 -6.13,-1.01 -8.48,-3.03 -2.35,-2.02 -3.51,-4.91 -3.51,-8.63 0,-3.33 1.19,-6.1 3.6,-8.27 2.41,-2.17 5.21,-3.27 8.39,-3.27 3.1,0 5.8,0.98 8.18,2.95 2.38,1.99 3.57,4.85 3.57,8.6 0,3.66 -1.16,6.52 -3.48,8.57 -2.32,2.05 -5.06,3.1 -8.27,3.1zm125.49 59.49c0,7.11 -1.1,13.63 -3.3,19.61 -2.23,5.98 -5.42,11.13 -9.61,15.41 -4.17,4.32 -9.2,7.59 -15,9.88 -5.8,2.29 -12.35,3.45 -19.61,3.45 -7.23,0 -13.72,-1.16 -19.46,-3.48 -5.74,-2.32 -10.74,-5.65 -14.97,-10 -4.19,-4.32 -7.41,-9.43 -9.58,-15.33 -2.17,-5.92 -3.27,-12.44 -3.27,-19.58 0,-7.2 1.1,-13.81 3.3,-19.79 2.23,-5.98 5.39,-11.1 9.52,-15.36 4.14,-4.23 9.14,-7.5 15,-9.79 5.86,-2.29 12.35,-3.45 19.46,-3.45 7.2,0 13.75,1.16 19.61,3.48 5.86,2.32 10.89,5.65 15.09,9.97 4.19,4.29 7.38,9.4 9.55,15.36 2.17,5.92 3.27,12.47 3.27,19.61zm-23.93 0c0,-9.7 -2.14,-17.23 -6.4,-22.64 -4.29,-5.39 -10,-8.1 -17.2,-8.1 -4.67,0 -8.75,1.19 -12.29,3.6 -3.54,2.41 -6.28,5.98 -8.18,10.68 -1.93,4.7 -2.89,10.21 -2.89,16.46 0,6.22 0.95,11.67 2.83,16.31 1.9,4.64 4.58,8.21 8.09,10.68 3.51,2.47 7.68,3.69 12.44,3.69 7.2,0 12.91,-2.71 17.2,-8.15 4.26,-5.42 6.4,-12.94 6.4,-22.53zm-44.85 -60.02c-2.53,0 -4.76,-0.86 -6.79,-2.62 -1.99,-1.76 -3,-4.14 -3,-7.17 0,-2.89 0.95,-5.27 2.89,-7.11 1.9,-1.82 4.23,-2.74 6.9,-2.74 2.62,0 4.91,0.83 6.87,2.5 1.99,1.64 2.98,4.11 2.98,7.35 0,3.03 -0.98,5.42 -2.98,7.17 -1.96,1.76 -4.26,2.62 -6.87,2.62zm34.01 -19.64c1.61,0 3.21,0.45 4.79,1.31 1.58,0.86 2.8,2.08 3.66,3.66 0.86,1.58 1.31,3.21 1.31,4.88 0,3.03 -0.95,5.42 -2.89,7.17 -1.91,1.76 -4.23,2.62 -6.87,2.62 -2.59,0 -4.85,-0.86 -6.88,-2.62 -1.99,-1.76 -3,-4.14 -3,-7.17 0,-2.62 0.98,-4.91 2.98,-6.88 1.96,-1.99 4.28,-2.98 6.9,-2.98zm130.1 96.95c0,6.55 -1.61,12.17 -4.79,16.84 -3.18,4.67 -7.92,8.21 -14.17,10.62 -6.25,2.41 -13.84,3.6 -22.79,3.6 -8.54,0 -15.86,-1.31 -21.96,-3.93 -6.1,-2.59 -10.59,-5.86 -13.51,-9.79 -2.89,-3.9 -4.34,-7.83 -4.34,-11.78 0,-2.62 0.92,-4.85 2.8,-6.7 1.85,-1.87 4.2,-2.8 7.05,-2.8 2.5,0 4.4,0.63 5.74,1.85 1.34,1.22 2.62,2.92 3.84,5.15 2.44,4.23 5.36,7.41 8.75,9.49 3.39,2.11 8.03,3.15 13.9,3.15 4.76,0 8.66,-1.07 11.7,-3.18 3.07,-2.11 4.58,-4.55 4.58,-7.29 0,-4.2 -1.58,-7.23 -4.73,-9.17 -3.18,-1.9 -8.39,-3.75 -15.65,-5.5 -8.19,-2.02 -14.85,-4.17 -20,-6.4 -5.12,-2.23 -9.23,-5.21 -12.32,-8.87 -3.07,-3.66 -4.61,-8.18 -4.61,-13.51 0,-4.79 1.43,-9.28 4.26,-13.54 2.86,-4.26 7.05,-7.62 12.62,-10.15 5.54,-2.53 12.23,-3.81 20.09,-3.81 6.16,0 11.7,0.63 16.58,1.91 4.91,1.28 9.02,3.01 12.29,5.15 3.3,2.17 5.8,4.55 7.5,7.17 1.73,2.62 2.59,5.15 2.59,7.68 0,2.71 -0.92,4.97 -2.77,6.7 -1.81,1.76 -4.43,2.62 -7.8,2.62 -2.44,0 -4.52,-0.68 -6.25,-2.08 -1.7,-1.4 -3.66,-3.48 -5.89,-6.28 -1.79,-2.32 -3.9,-4.2 -6.34,-5.59 -2.44,-1.4 -5.74,-2.08 -9.94,-2.08 -4.29,0 -7.86,0.92 -10.71,2.74 -2.83,1.84 -4.26,4.14 -4.26,6.87 0,2.5 1.04,4.55 3.12,6.13 2.11,1.61 4.91,2.95 8.45,3.99 3.54,1.04 8.42,2.32 14.64,3.84 7.38,1.79 13.42,3.96 18.09,6.46 4.67,2.5 8.21,5.45 10.62,8.87 2.41,3.39 3.63,7.26 3.63,11.64zm86.57 -11.43l-46.57 0c0.06,5.42 1.16,10.18 3.27,14.31 2.11,4.14 4.94,7.23 8.45,9.31 3.51,2.11 7.41,3.15 11.64,3.15 2.86,0 5.45,-0.33 7.8,-1.01 2.38,-0.65 4.64,-1.69 6.84,-3.12 2.23,-1.43 4.25,-2.95 6.1,-4.58 1.87,-1.64 4.28,-3.84 7.26,-6.63 1.22,-1.04 2.95,-1.58 5.21,-1.58 2.44,0 4.43,0.68 5.95,2.02 1.49,1.31 2.26,3.21 2.26,5.65 0,2.14 -0.86,4.64 -2.53,7.53 -1.7,2.86 -4.23,5.62 -7.65,8.24 -3.39,2.65 -7.65,4.85 -12.8,6.58 -5.15,1.76 -11.07,2.62 -17.74,2.62 -15.3,0 -27.17,-4.37 -35.65,-13.09 -8.48,-8.72 -12.71,-20.53 -12.71,-35.47 0,-7.02 1.04,-13.57 3.12,-19.58 2.08,-6.01 5.15,-11.16 9.14,-15.48 4.02,-4.29 8.96,-7.59 14.82,-9.88 5.86,-2.29 12.38,-3.45 19.52,-3.45 9.31,0 17.29,1.96 23.93,5.89 6.67,3.93 11.63,8.99 14.97,15.24 3.3,6.22 4.97,12.56 4.97,19.02 0,5.98 -1.72,9.88 -5.15,11.67 -3.42,1.76 -8.24,2.65 -14.46,2.65zm-46.57 -13.57l43.15 0c-0.56,-8.12 -2.77,-14.19 -6.58,-18.24 -3.81,-4.02 -8.81,-6.04 -15.03,-6.04 -5.95,0 -10.8,2.05 -14.61,6.13 -3.81,4.11 -6.13,10.15 -6.93,18.15zm158.58 -60.38l0 36.63 55.89 0 0 -36.63c0,-5.21 1.19,-9.13 3.54,-11.75 2.35,-2.62 5.45,-3.93 9.28,-3.93 3.87,0 7.02,1.28 9.43,3.87 2.41,2.59 3.63,6.52 3.63,11.81l0 100.67c0,5.3 -1.22,9.23 -3.66,11.84 -2.44,2.62 -5.59,3.93 -9.4,3.93 -3.9,0 -7.02,-1.31 -9.34,-3.96 -2.32,-2.65 -3.48,-6.58 -3.48,-11.81l0 -42.97 -55.89 0 0 42.97c0,5.3 -1.22,9.23 -3.66,11.84 -2.44,2.62 -5.59,3.93 -9.4,3.93 -3.9,0 -7.02,-1.31 -9.35,-3.96 -2.32,-2.65 -3.48,-6.58 -3.48,-11.81l0 -100.67c0,-5.24 1.16,-9.13 3.45,-11.75 2.29,-2.62 5.42,-3.93 9.38,-3.93 3.87,0 7.02,1.28 9.43,3.87 2.41,2.59 3.63,6.55 3.63,11.81zm197.09 68.09c0,7.11 -1.1,13.63 -3.3,19.61 -2.23,5.98 -5.42,11.13 -9.61,15.41 -4.17,4.32 -9.2,7.59 -15,9.88 -5.8,2.29 -12.35,3.45 -19.61,3.45 -7.23,0 -13.72,-1.16 -19.46,-3.48 -5.74,-2.32 -10.74,-5.65 -14.97,-10 -4.19,-4.32 -7.41,-9.43 -9.58,-15.33 -2.17,-5.92 -3.27,-12.44 -3.27,-19.58 0,-7.2 1.1,-13.81 3.3,-19.79 2.23,-5.98 5.39,-11.1 9.52,-15.36 4.14,-4.23 9.14,-7.5 15,-9.79 5.86,-2.29 12.35,-3.45 19.46,-3.45 7.2,0 13.75,1.16 19.61,3.48 5.86,2.32 10.89,5.65 15.09,9.97 4.19,4.29 7.38,9.4 9.55,15.36 2.17,5.92 3.27,12.47 3.27,19.61zm-23.93 0c0,-9.7 -2.14,-17.23 -6.4,-22.64 -4.29,-5.39 -10,-8.1 -17.2,-8.1 -4.67,0 -8.75,1.19 -12.29,3.6 -3.54,2.41 -6.28,5.98 -8.18,10.68 -1.93,4.7 -2.89,10.21 -2.89,16.46 0,6.22 0.95,11.67 2.83,16.31 1.9,4.64 4.58,8.21 8.09,10.68 3.51,2.47 7.68,3.69 12.44,3.69 7.2,0 12.91,-2.71 17.2,-8.15 4.26,-5.42 6.4,-12.94 6.4,-22.53zm64.63 -70.17l0 36.36c4.46,-4.67 9.05,-8.24 13.69,-10.71 4.64,-2.47 10.41,-3.72 17.26,-3.72 7.92,0 14.85,1.87 20.8,5.62 5.95,3.75 10.56,9.2 13.84,16.31 3.3,7.11 4.94,15.56 4.94,25.32 0,7.2 -0.92,13.81 -2.74,19.82 -1.85,6.01 -4.49,11.25 -7.98,15.65 -3.48,4.43 -7.74,7.82 -12.71,10.24 -4.97,2.41 -10.45,3.63 -16.43,3.63 -3.66,0 -7.11,-0.45 -10.33,-1.31 -3.21,-0.86 -5.98,-2.02 -8.24,-3.45 -2.26,-1.4 -4.2,-2.88 -5.8,-4.4 -1.58,-1.49 -3.69,-3.75 -6.31,-6.78l0 2.35c0,4.46 -1.07,7.86 -3.21,10.15 -2.17,2.29 -4.91,3.45 -8.21,3.45 -3.36,0 -6.04,-1.16 -8.07,-3.45 -1.99,-2.29 -3,-5.68 -3,-10.15l0 -103.89c0,-4.82 0.98,-8.48 2.92,-10.95 1.96,-2.47 4.67,-3.69 8.15,-3.69 3.66,0 6.49,1.19 8.45,3.54 1.99,2.35 2.98,5.71 2.98,10.06zm1.13 70.71c0,9.46 2.17,16.72 6.49,21.81 4.34,5.09 10,7.62 17.02,7.62 5.98,0 11.16,-2.59 15.47,-7.8 4.32,-5.21 6.49,-12.65 6.49,-22.35 0,-6.25 -0.89,-11.67 -2.71,-16.19 -1.79,-4.52 -4.34,-8.04 -7.65,-10.51 -3.33,-2.47 -7.17,-3.69 -11.61,-3.69 -4.52,0 -8.54,1.22 -12.08,3.69 -3.54,2.47 -6.34,6.04 -8.36,10.71 -2.05,4.67 -3.07,10.24 -3.07,16.69zm108.11 -70.71l0 36.36c4.46,-4.67 9.05,-8.24 13.69,-10.71 4.64,-2.47 10.41,-3.72 17.26,-3.72 7.92,0 14.85,1.87 20.8,5.62 5.95,3.75 10.56,9.2 13.84,16.31 3.3,7.11 4.94,15.56 4.94,25.32 0,7.2 -0.92,13.81 -2.74,19.82 -1.85,6.01 -4.49,11.25 -7.98,15.65 -3.48,4.43 -7.74,7.82 -12.71,10.24 -4.97,2.41 -10.45,3.63 -16.43,3.63 -3.66,0 -7.11,-0.45 -10.33,-1.31 -3.21,-0.86 -5.98,-2.02 -8.24,-3.45 -2.26,-1.4 -4.2,-2.88 -5.8,-4.4 -1.58,-1.49 -3.69,-3.75 -6.31,-6.78l0 2.35c0,4.46 -1.07,7.86 -3.21,10.15 -2.17,2.29 -4.91,3.45 -8.21,3.45 -3.36,0 -6.04,-1.16 -8.07,-3.45 -1.99,-2.29 -3,-5.68 -3,-10.15l0 -103.89c0,-4.82 0.98,-8.48 2.92,-10.95 1.96,-2.47 4.67,-3.69 8.15,-3.69 3.66,0 6.49,1.19 8.45,3.54 1.99,2.35 2.98,5.71 2.98,10.06zm1.13 70.71c0,9.46 2.17,16.72 6.49,21.81 4.34,5.09 10,7.62 17.02,7.62 5.98,0 11.16,-2.59 15.47,-7.8 4.32,-5.21 6.49,-12.65 6.49,-22.35 0,-6.25 -0.89,-11.67 -2.71,-16.19 -1.79,-4.52 -4.34,-8.04 -7.65,-10.51 -3.33,-2.47 -7.17,-3.69 -11.61,-3.69 -4.52,0 -8.54,1.22 -12.08,3.69 -3.54,2.47 -6.34,6.04 -8.36,10.71 -2.05,4.67 -3.07,10.24 -3.07,16.69zm108.08 50.83l2.2 -5.33 -29.28 -73.77c-1.81,-4.26 -2.71,-7.35 -2.71,-9.25 0,-2.02 0.53,-3.93 1.58,-5.68 1.04,-1.72 2.47,-3.12 4.31,-4.17 1.82,-1.04 3.72,-1.58 5.68,-1.58 3.45,0 6.04,1.1 7.77,3.27 1.76,2.17 3.27,5.3 4.61,9.37l20.15 58.6 19.08 -54.49c1.52,-4.43 2.89,-7.89 4.11,-10.39 1.22,-2.5 2.5,-4.2 3.87,-5.06 1.37,-0.86 3.3,-1.31 5.8,-1.31 1.79,0 3.51,0.48 5.18,1.43 1.64,0.98 2.92,2.26 3.84,3.9 0.89,1.61 1.34,3.33 1.34,5.15 -0.24,1.1 -0.6,2.68 -1.13,4.7 -0.53,2.02 -1.16,4.11 -1.91,6.19l-31.04 81.27c-2.68,7.17 -5.3,12.77 -7.82,16.84 -2.56,4.08 -5.95,7.2 -10.18,9.37 -4.19,2.17 -9.88,3.27 -17.02,3.27 -6.96,0 -12.2,-0.75 -15.68,-2.26 -3.48,-1.52 -5.24,-4.29 -5.24,-8.27 0,-2.74 0.83,-4.85 2.5,-6.31 1.64,-1.49 4.11,-2.23 7.35,-2.23 1.28,0 2.53,0.18 3.75,0.51 1.52,0.36 2.83,0.53 3.93,0.53 2.74,0 4.88,-0.42 6.43,-1.22 1.58,-0.8 2.98,-2.23 4.23,-4.23 1.25,-2.02 2.71,-4.97 4.32,-8.87zm139.48 -72.46l-43.6 48.74 46.63 0c3.78,0 6.64,0.89 8.54,2.65 1.93,1.79 2.88,4.08 2.88,6.84 0,2.68 -0.95,4.85 -2.83,6.55 -1.91,1.69 -4.76,2.53 -8.6,2.53l-64.52 0c-4.52,0 -7.91,-0.98 -10.15,-2.98 -2.23,-1.96 -3.36,-4.67 -3.36,-8.09 0,-2.02 0.77,-4.08 2.35,-6.16 1.58,-2.05 4.82,-5.83 9.76,-11.37 5.24,-5.8 10,-11.07 14.25,-15.8 4.29,-4.7 8.24,-9.11 11.9,-13.21 3.66,-4.08 6.7,-7.56 9.11,-10.42 2.41,-2.86 4.34,-5.3 5.8,-7.32l-35.38 0c-4.88,0 -8.57,-0.45 -11.07,-1.31 -2.5,-0.86 -3.75,-3.15 -3.75,-6.87 0,-2.71 0.92,-4.91 2.83,-6.52 1.87,-1.64 4.58,-2.44 8.07,-2.44l54.67 0c5.06,0 8.93,0.74 11.63,2.23 2.71,1.46 4.05,4.14 4.05,7.95 0,1.28 -0.27,2.62 -0.77,3.96 -0.53,1.37 -1.1,2.5 -1.76,3.36 -0.63,0.86 -1.52,1.93 -2.62,3.18 -1.1,1.25 -2.47,2.74 -4.08,4.49zm90.14 56.03l0 -3.07c-2.86,3.6 -5.83,6.64 -8.99,9.08 -3.13,2.44 -6.55,4.26 -10.27,5.45 -3.72,1.19 -7.95,1.79 -12.71,1.79 -5.77,0 -10.92,-1.19 -15.47,-3.57 -4.55,-2.38 -8.1,-5.65 -10.59,-9.85 -2.95,-5.06 -4.43,-12.32 -4.43,-21.81l0 -47.14c0,-4.79 1.07,-8.33 3.21,-10.68 2.14,-2.35 5,-3.54 8.54,-3.54 3.57,0 6.49,1.19 8.69,3.57 2.2,2.38 3.3,5.92 3.3,10.65l0 38.09c0,5.5 0.48,10.15 1.4,13.9 0.92,3.75 2.59,6.7 5,8.81 2.41,2.11 5.68,3.18 9.82,3.18 4.02,0 7.8,-1.19 11.34,-3.57 3.54,-2.38 6.13,-5.5 7.77,-9.34 1.34,-3.36 1.99,-10.74 1.99,-22.14l0 -28.93c0,-4.73 1.1,-8.27 3.3,-10.65 2.23,-2.38 5.12,-3.57 8.66,-3.57 3.54,0 6.4,1.19 8.54,3.54 2.17,2.35 3.24,5.89 3.24,10.68l0 68.95c0,4.52 -1.04,7.92 -3.1,10.21 -2.08,2.26 -4.73,3.39 -8,3.39 -3.24,0 -5.95,-1.19 -8.06,-3.54 -2.11,-2.35 -3.18,-5.65 -3.18,-9.88zm131.47 -16.01c0,2.95 -0.89,6.13 -2.68,9.49 -1.76,3.36 -4.46,6.58 -8.09,9.61 -3.63,3.03 -8.21,5.5 -13.75,7.35 -5.5,1.87 -11.73,2.8 -18.66,2.8 -14.7,0 -26.19,-4.29 -34.43,-12.86 -8.27,-8.57 -12.41,-20.06 -12.41,-34.49 0,-9.76 1.91,-18.39 5.68,-25.89 3.78,-7.5 9.25,-13.3 16.4,-17.38 7.17,-4.11 15.71,-6.16 25.65,-6.16 6.16,0 11.81,0.89 16.96,2.71 5.12,1.81 9.49,4.14 13.06,6.99 3.57,2.86 6.31,5.89 8.18,9.11 1.91,3.24 2.86,6.25 2.86,9.05 0,2.86 -1.07,5.27 -3.18,7.26 -2.14,1.96 -4.7,2.95 -7.74,2.95 -1.97,0 -3.6,-0.51 -4.91,-1.52 -1.31,-1.01 -2.77,-2.65 -4.4,-4.91 -2.92,-4.4 -5.95,-7.74 -9.11,-9.94 -3.18,-2.2 -7.2,-3.3 -12.08,-3.3 -7.02,0 -12.71,2.74 -16.99,8.24 -4.31,5.47 -6.46,12.97 -6.46,22.5 0,4.46 0.57,8.57 1.67,12.32 1.1,3.75 2.68,6.96 4.79,9.58 2.08,2.65 4.61,4.64 7.59,6.01 2.95,1.37 6.22,2.05 9.76,2.05 4.76,0 8.84,-1.1 12.23,-3.3 3.42,-2.2 6.43,-5.59 9.05,-10.12 1.43,-2.68 3.01,-4.76 4.7,-6.25 1.67,-1.52 3.75,-2.29 6.19,-2.29 2.92,0 5.33,1.13 7.23,3.33 1.91,2.2 2.89,4.55 2.89,7.05zm39.49 -88.23l0 35.27c3.03,-3.48 5.98,-6.25 8.87,-8.27 2.86,-2.02 6.04,-3.57 9.52,-4.58 3.51,-1.01 7.26,-1.52 11.28,-1.52 6.04,0 11.4,1.28 16.1,3.84 4.67,2.56 8.33,6.28 11.01,11.16 1.7,2.83 2.83,6.01 3.42,9.55 0.56,3.51 0.86,7.56 0.86,12.14l0 45.62c0,4.76 -1.1,8.36 -3.27,10.8 -2.17,2.44 -5.09,3.66 -8.69,3.66 -7.86,0 -11.78,-4.82 -11.78,-14.46l0 -40.2c0,-7.62 -1.13,-13.48 -3.39,-17.56 -2.26,-4.11 -6.58,-6.16 -12.91,-6.16 -4.23,0 -8.06,1.22 -11.46,3.63 -3.39,2.41 -5.95,5.68 -7.62,9.88 -1.28,3.54 -1.93,9.85 -1.93,18.93l0 31.49c0,4.7 -1.07,8.27 -3.18,10.74 -2.11,2.47 -5.06,3.72 -8.81,3.72 -7.83,0 -11.75,-4.82 -11.75,-14.46l0 -103.2c0,-4.82 1.04,-8.42 3.09,-10.83 2.05,-2.41 4.94,-3.63 8.66,-3.63 3.75,0 6.7,1.22 8.81,3.66 2.11,2.44 3.18,6.04 3.18,10.8zm85.94 23.03l2.62 0 0 -14.32c0,-3.84 0.09,-6.84 0.3,-9.02 0.21,-2.2 0.77,-4.08 1.69,-5.62 0.92,-1.64 2.26,-2.98 4.02,-3.99 1.72,-1.01 3.66,-1.52 5.83,-1.52 3,0 5.71,1.13 8.15,3.39 1.64,1.52 2.65,3.36 3.1,5.56 0.45,2.17 0.65,5.27 0.65,9.29l0 16.22 8.72 0c3.36,0 5.95,0.8 7.71,2.38 1.79,1.61 2.68,3.66 2.68,6.13 0,3.21 -1.28,5.45 -3.81,6.73 -2.53,1.28 -6.13,1.91 -10.86,1.91l-4.44 0 0 43.75c0,3.72 0.12,6.61 0.39,8.6 0.27,1.99 0.95,3.63 2.08,4.88 1.16,1.25 3.01,1.87 5.57,1.87 1.37,0 3.27,-0.24 5.65,-0.74 2.38,-0.48 4.26,-0.75 5.57,-0.75 1.93,0 3.66,0.78 5.21,2.32 1.55,1.55 2.29,3.45 2.29,5.71 0,3.84 -2.08,6.76 -6.25,8.78 -4.19,2.05 -10.21,3.07 -18.06,3.07 -7.44,0 -13.06,-1.25 -16.87,-3.75 -3.84,-2.5 -6.34,-5.95 -7.53,-10.39 -1.19,-4.4 -1.79,-10.3 -1.79,-17.68l0 -45.68 -3.13 0c-3.45,0 -6.07,-0.8 -7.86,-2.44 -1.82,-1.61 -2.71,-3.69 -2.71,-6.19 0,-2.47 0.95,-4.52 2.83,-6.13 1.9,-1.58 4.64,-2.38 8.24,-2.38z"/>
 </g>
</svg>
